<svg data-testid="logo" xmlns="http://www.w3.org/2000/svg" viewBox="0 0 124 48" class="dw-1wo3y08-LogoWrapper--Logo e18do0910"><g fill="#3F9C35" fill-rule="nonzero"><path d="M16.552 31.886c-.53.984-1.239 1.79-2.08 2.372a7.953 7.953 0 0 1-2.877 1.253c-1.106.269-2.168.359-3.275.359H5.134V20.158H8.32c1.063 0 2.169.09 3.275.313a8.662 8.662 0 0 1 2.877 1.164c.841.582 1.55 1.388 2.08 2.373.531 1.03.797 2.372.797 3.983 0 1.612-.266 2.91-.797 3.895m4.957-9.624c-.84-1.567-1.903-2.82-3.23-3.805-1.328-.94-2.789-1.656-4.426-2.059-1.638-.403-3.231-.627-4.869-.627H.398a.399.399 0 0 0-.398.403v23.814c0 .223.177.402.398.402h8.586c1.593 0 3.231-.223 4.869-.716 1.637-.492 3.142-1.208 4.425-2.193 1.328-.985 2.39-2.283 3.231-3.805.797-1.611 1.24-3.491 1.24-5.595 0-2.328-.443-4.252-1.24-5.82M40.59 23.426h-4.148a.402.402 0 0 0-.402.405v8.908c0 .495-.089.99-.223 1.485-.134.495-.357.9-.624 1.26-.268.36-.625.675-1.07.9-.447.225-.937.36-1.517.36-.58 0-1.026-.135-1.383-.36a2.216 2.216 0 0 1-.803-.9c-.223-.36-.357-.81-.401-1.26-.045-.495-.09-.99-.09-1.44v-8.998a.402.402 0 0 0-.4-.405h-4.15a.402.402 0 0 0-.4.405v10.123c0 .855.133 1.71.356 2.52.223.855.625 1.575 1.16 2.25a6.113 6.113 0 0 0 2.052 1.574c.803.405 1.829.585 2.944.585 1.338 0 2.453-.315 3.434-.99a7.27 7.27 0 0 0 1.383-1.215v1.35c0 .225.178.405.401.405h3.926c.223 0 .401-.18.401-.405V23.831c-.045-.225-.223-.405-.446-.405M58.204 25.087a6.414 6.414 0 0 0-2.013-1.57c-.805-.404-1.833-.584-2.952-.584-1.297 0-2.46.314-3.444.988a5.871 5.871 0 0 0-1.342 1.211v-1.346a.402.402 0 0 0-.402-.404h-3.936a.402.402 0 0 0-.403.404v16.2c0 .225.18.404.403.404h4.16c.223 0 .402-.179.402-.403v-8.93c0-.495.09-.988.224-1.482s.358-.897.626-1.256a3.032 3.032 0 0 1 1.073-.898c.403-.224.94-.359 1.521-.359.582 0 1.029.135 1.387.359.358.224.626.539.805.898.224.359.358.807.402 1.256.045.494.09.987.09 1.436v8.976c0 .224.179.403.402.403h4.16c.224 0 .403-.179.403-.403V29.844c0-.852-.134-1.705-.358-2.513-.268-.852-.671-1.615-1.208-2.244M66.913 29.854c.133-.848.576-1.563 1.24-2.143.796-.67 1.726-.982 2.877-.982.62 0 1.15.089 1.55.268.442.178.796.446 1.061.759.266.312.487.67.62 1.116.089.312.177.625.177.982h-7.525zm11.863-1.741a8.334 8.334 0 0 0-1.726-2.858 7.65 7.65 0 0 0-2.656-1.741c-1.018-.402-2.125-.58-3.32-.58-1.284 0-2.479.223-3.585.67-1.107.446-2.08 1.026-2.877 1.83-.797.803-1.461 1.741-1.904 2.857A9.862 9.862 0 0 0 62 31.997c0 1.384.221 2.59.708 3.706a7.647 7.647 0 0 0 1.948 2.769 8.79 8.79 0 0 0 2.921 1.741c1.107.402 2.346.625 3.674.625 3.187 0 5.666-1.116 7.348-3.393.133-.179.088-.402-.089-.536l-2.744-2.143c-.088-.09-.177-.09-.31-.09-.088 0-.221.09-.265.179a4.34 4.34 0 0 1-1.594 1.384c-.664.357-1.46.491-2.434.491-.532 0-1.063-.089-1.594-.268a5.15 5.15 0 0 1-1.372-.759 3.213 3.213 0 0 1-.93-1.116 2.834 2.834 0 0 1-.354-1.027h12.04c.177 0 .354-.134.398-.357.045-.179.045-.402.045-.58v-.536c0-1.518-.222-2.813-.62-3.974zM115.568 27.331c-.223-.852-.626-1.57-1.163-2.244a6.417 6.417 0 0 0-2.014-1.57c-.806-.404-1.835-.584-2.954-.584-1.298 0-2.461.27-3.446.853a6.083 6.083 0 0 0-2.014 1.84c-.447-.718-1.029-1.301-1.745-1.795-.895-.584-2.059-.898-3.446-.898-.716 0-1.343.09-1.97.27a5.657 5.657 0 0 0-1.566.763 6.59 6.59 0 0 0-1.163 1.032l-.134.134v-1.346a.402.402 0 0 0-.403-.404H89.61a.402.402 0 0 0-.402.404v16.2c0 .225.179.404.402.404h4.162c.224 0 .403-.179.403-.403v-8.93c0-.495.09-.988.224-1.482s.358-.897.582-1.301c.268-.36.582-.673.984-.898a2.946 2.946 0 0 1 1.433-.359c.94 0 1.61.27 2.013.853.448.583.672 1.346.672 2.289v9.783c0 .224.179.404.403.404h4.162c.223 0 .402-.18.402-.404v-8.796c0-.494.045-.987.18-1.481.134-.494.313-.943.581-1.302a4.166 4.166 0 0 1 1.03-.942c.402-.224.895-.359 1.476-.359.582 0 1.03.135 1.388.359.358.224.626.539.805.898.224.359.358.807.403 1.256.045.494.09.987.09 1.436v8.976c0 .224.179.403.402.403h4.162c.224 0 .403-.179.403-.403V29.844a11.779 11.779 0 0 0-.403-2.513M85.481 14.155l-3.592 3.14a.644.644 0 0 0-.263.538v22.199c0 .224.175.358.394.358h4.118c.22 0 .394-.179.394-.358V14.604c0-.494-.525-.852-1.051-.449"></path><path d="M.445 48C.223 48 0 47.821 0 47.598V43.804c0-.223.178-.401.445-.401h118.611V20.505c0-.044-.223-.401-.267-.49l-15.901-14.06L90.46 16.487c-.356.313-.98.179-1.024-.446V11.4c0-.179.089-.402.222-.536l10.824-9.15c.623-.446 1.47-.714 2.405-.714.935 0 1.782.268 2.405.714l16.48 14.551c1.247.893 2.227 2.767 2.227 4.285v24.46c0 1.651-1.38 2.99-3.073 2.99H.445z"></path></g></svg>